<svg xmlns="http://www.w3.org/2000/svg" viewBox="0 0 100 100">
  <rect width="100" height="100" rx="18" fill="#04342C"/>
  <line x1="33" y1="10" x2="33" y2="90" stroke="#0F6E56" stroke-width="1"/>
  <line x1="50" y1="10" x2="50" y2="90" stroke="#0F6E56" stroke-width="1"/>
  <line x1="67" y1="10" x2="67" y2="90" stroke="#0F6E56" stroke-width="1"/>
  <line x1="10" y1="33" x2="90" y2="33" stroke="#0F6E56" stroke-width="1"/>
  <line x1="10" y1="50" x2="90" y2="50" stroke="#0F6E56" stroke-width="1"/>
  <line x1="10" y1="67" x2="90" y2="67" stroke="#0F6E56" stroke-width="1"/>
  <ellipse cx="50" cy="50" rx="34" ry="16" fill="none" stroke="#1D9E75" stroke-width="2" stroke-dasharray="5 4" transform="rotate(-20 50 50)"/>
  <circle cx="50" cy="50" r="9" fill="#0F6E56" stroke="#5DCAA5" stroke-width="2"/>
  <circle cx="47" cy="47" r="3" fill="#1D9E75"/>
  <circle cx="54" cy="53" r="2.5" fill="#1D9E75"/>
  <g transform="rotate(-20 50 50) translate(34 0)">
    <rect x="43" y="47" width="8" height="6" rx="1.5" fill="#9FE1CB"/>
    <rect x="37" y="48.5" width="5" height="3" rx="1" fill="#5DCAA5"/>
    <rect x="52" y="48.5" width="5" height="3" rx="1" fill="#5DCAA5"/>
  </g>
</svg>